<svg viewBox="0 0 87 28" fill="none" xmlns="http://www.w3.org/2000/svg"><path d="M26.502 4.742h3.627l2.896 11.533s.314 1.33.444 1.984c.13-.651.444-2.01.444-2.01L36.89 4.742h3.55l2.974 11.507s.315 1.356.445 2.01c.13-.651.444-1.984.444-1.984l2.896-11.533h3.627l-5.037 18.264h-3.705L38.666 9.752l-3.417 13.254h-3.705L26.502 4.742ZM56.206 10.064h-3.287v12.942h3.287V10.064ZM68.435 23.006v-7.462c0-1.696-.81-2.766-2.636-2.766-1.72 0-3 1.487-3 3.652v6.576h-3.287V10.064h3.287v2.086c.965-1.486 2.505-2.451 4.382-2.451 2.766 0 4.54 1.8 4.54 4.487v8.818h-3.286v.002ZM74.674 4.742h3.287v9.237l3.94-3.915h4.071L81.25 14.68l5.35 8.323h-3.784l-3.862-6.053-.99.966v5.087h-3.287V4.742h-.003ZM52.482 3.406l1.285 1.285-1.285 1.284 1.52 1.517 2.801-2.801-2.801-2.802-1.52 1.517Z" fill="#fff"></path><path d="M7.766.429.429 7.766l6.208 6.208-6.208 6.21 7.337 7.337 13.547-13.547L7.766.429Z" fill="#FF4F12"></path></svg>